<mxfile host="app.diagrams.net" modified="2021-09-06T04:36:53.447Z" agent="5.0 (Windows NT 10.0; Win64; x64) AppleWebKit/537.36 (KHTML, like Gecko) Chrome/92.0.4515.159 Safari/537.36" etag="ESAPipikAXStgGDz_Mv3" version="15.0.6" type="github">
  <diagram id="C5RBs43oDa-KdzZeNtuy" name="Page-1">
    <mxGraphModel dx="1108" dy="450" grid="1" gridSize="10" guides="1" tooltips="1" connect="1" arrows="1" fold="1" page="1" pageScale="1" pageWidth="827" pageHeight="1169" math="0" shadow="0">
      <root>
        <mxCell id="WIyWlLk6GJQsqaUBKTNV-0" />
        <mxCell id="WIyWlLk6GJQsqaUBKTNV-1" parent="WIyWlLk6GJQsqaUBKTNV-0" />
        <mxCell id="-idngQaAylRtu0GGNy7f-109" style="edgeStyle=orthogonalEdgeStyle;rounded=0;orthogonalLoop=1;jettySize=auto;html=1;exitX=0;exitY=0;exitDx=52.5;exitDy=40;exitPerimeter=0;entryX=0.5;entryY=0;entryDx=0;entryDy=0;" edge="1" parent="WIyWlLk6GJQsqaUBKTNV-1" source="-idngQaAylRtu0GGNy7f-9" target="-idngQaAylRtu0GGNy7f-26">
          <mxGeometry relative="1" as="geometry" />
        </mxCell>
        <mxCell id="-idngQaAylRtu0GGNy7f-9" value="" style="shape=display;whiteSpace=wrap;html=1;shadow=1;" vertex="1" parent="WIyWlLk6GJQsqaUBKTNV-1">
          <mxGeometry x="110" y="40" width="100" height="40" as="geometry" />
        </mxCell>
        <mxCell id="-idngQaAylRtu0GGNy7f-82" style="edgeStyle=orthogonalEdgeStyle;rounded=0;orthogonalLoop=1;jettySize=auto;html=1;exitX=0;exitY=0;exitDx=55;exitDy=30;exitPerimeter=0;entryX=0.5;entryY=0;entryDx=0;entryDy=0;" edge="1" parent="WIyWlLk6GJQsqaUBKTNV-1" source="-idngQaAylRtu0GGNy7f-10" target="-idngQaAylRtu0GGNy7f-27">
          <mxGeometry relative="1" as="geometry" />
        </mxCell>
        <mxCell id="-idngQaAylRtu0GGNy7f-10" value="" style="shape=display;whiteSpace=wrap;html=1;shadow=1;" vertex="1" parent="WIyWlLk6GJQsqaUBKTNV-1">
          <mxGeometry x="110" y="136" width="100" height="30" as="geometry" />
        </mxCell>
        <mxCell id="-idngQaAylRtu0GGNy7f-107" style="edgeStyle=orthogonalEdgeStyle;rounded=0;orthogonalLoop=1;jettySize=auto;html=1;exitX=0;exitY=0;exitDx=52.5;exitDy=40;exitPerimeter=0;entryX=0;entryY=0.5;entryDx=0;entryDy=0;" edge="1" parent="WIyWlLk6GJQsqaUBKTNV-1" source="-idngQaAylRtu0GGNy7f-11" target="-idngQaAylRtu0GGNy7f-105">
          <mxGeometry relative="1" as="geometry" />
        </mxCell>
        <mxCell id="-idngQaAylRtu0GGNy7f-11" value="" style="shape=display;whiteSpace=wrap;html=1;shadow=1;" vertex="1" parent="WIyWlLk6GJQsqaUBKTNV-1">
          <mxGeometry x="40" y="380" width="100" height="40" as="geometry" />
        </mxCell>
        <mxCell id="-idngQaAylRtu0GGNy7f-57" style="edgeStyle=orthogonalEdgeStyle;rounded=0;orthogonalLoop=1;jettySize=auto;html=1;exitX=0;exitY=0;exitDx=52.5;exitDy=40;exitPerimeter=0;entryX=0.536;entryY=0.226;entryDx=0;entryDy=0;entryPerimeter=0;" edge="1" parent="WIyWlLk6GJQsqaUBKTNV-1" source="-idngQaAylRtu0GGNy7f-12" target="-idngQaAylRtu0GGNy7f-34">
          <mxGeometry relative="1" as="geometry" />
        </mxCell>
        <mxCell id="-idngQaAylRtu0GGNy7f-12" value="" style="shape=display;whiteSpace=wrap;html=1;shadow=1;" vertex="1" parent="WIyWlLk6GJQsqaUBKTNV-1">
          <mxGeometry x="470" y="270" width="100" height="40" as="geometry" />
        </mxCell>
        <mxCell id="-idngQaAylRtu0GGNy7f-63" style="edgeStyle=orthogonalEdgeStyle;rounded=0;orthogonalLoop=1;jettySize=auto;html=1;exitX=0;exitY=0;exitDx=52.5;exitDy=40;exitPerimeter=0;entryX=0.5;entryY=0;entryDx=0;entryDy=0;" edge="1" parent="WIyWlLk6GJQsqaUBKTNV-1" source="-idngQaAylRtu0GGNy7f-13" target="-idngQaAylRtu0GGNy7f-35">
          <mxGeometry relative="1" as="geometry" />
        </mxCell>
        <mxCell id="-idngQaAylRtu0GGNy7f-13" value="" style="shape=display;whiteSpace=wrap;html=1;shadow=1;" vertex="1" parent="WIyWlLk6GJQsqaUBKTNV-1">
          <mxGeometry x="580" y="410" width="100" height="40" as="geometry" />
        </mxCell>
        <mxCell id="-idngQaAylRtu0GGNy7f-89" style="edgeStyle=orthogonalEdgeStyle;rounded=0;orthogonalLoop=1;jettySize=auto;html=1;exitX=0;exitY=0;exitDx=55;exitDy=30;exitPerimeter=0;entryX=1;entryY=0.5;entryDx=0;entryDy=0;" edge="1" parent="WIyWlLk6GJQsqaUBKTNV-1" source="-idngQaAylRtu0GGNy7f-15" target="-idngQaAylRtu0GGNy7f-75">
          <mxGeometry relative="1" as="geometry" />
        </mxCell>
        <mxCell id="-idngQaAylRtu0GGNy7f-15" value="" style="shape=display;whiteSpace=wrap;html=1;shadow=1;" vertex="1" parent="WIyWlLk6GJQsqaUBKTNV-1">
          <mxGeometry x="690" y="658.5" width="100" height="30" as="geometry" />
        </mxCell>
        <mxCell id="-idngQaAylRtu0GGNy7f-88" style="edgeStyle=orthogonalEdgeStyle;rounded=0;orthogonalLoop=1;jettySize=auto;html=1;exitX=0;exitY=0;exitDx=52.5;exitDy=40;exitPerimeter=0;entryX=0;entryY=0.5;entryDx=0;entryDy=0;" edge="1" parent="WIyWlLk6GJQsqaUBKTNV-1" source="-idngQaAylRtu0GGNy7f-16" target="-idngQaAylRtu0GGNy7f-75">
          <mxGeometry relative="1" as="geometry" />
        </mxCell>
        <mxCell id="-idngQaAylRtu0GGNy7f-16" value="" style="shape=display;whiteSpace=wrap;html=1;shadow=1;" vertex="1" parent="WIyWlLk6GJQsqaUBKTNV-1">
          <mxGeometry x="480" y="615" width="100" height="40" as="geometry" />
        </mxCell>
        <mxCell id="-idngQaAylRtu0GGNy7f-73" style="edgeStyle=orthogonalEdgeStyle;rounded=0;orthogonalLoop=1;jettySize=auto;html=1;exitX=0;exitY=0;exitDx=55;exitDy=30;exitPerimeter=0;entryX=0.5;entryY=0;entryDx=0;entryDy=0;" edge="1" parent="WIyWlLk6GJQsqaUBKTNV-1" source="-idngQaAylRtu0GGNy7f-17" target="-idngQaAylRtu0GGNy7f-43">
          <mxGeometry relative="1" as="geometry" />
        </mxCell>
        <mxCell id="-idngQaAylRtu0GGNy7f-17" value="" style="shape=display;whiteSpace=wrap;html=1;shadow=1;" vertex="1" parent="WIyWlLk6GJQsqaUBKTNV-1">
          <mxGeometry x="357.5" y="470" width="102.5" height="40" as="geometry" />
        </mxCell>
        <mxCell id="-idngQaAylRtu0GGNy7f-72" style="edgeStyle=orthogonalEdgeStyle;rounded=0;orthogonalLoop=1;jettySize=auto;html=1;exitX=0;exitY=0;exitDx=55;exitDy=30;exitPerimeter=0;entryX=0.5;entryY=0;entryDx=0;entryDy=0;" edge="1" parent="WIyWlLk6GJQsqaUBKTNV-1" source="-idngQaAylRtu0GGNy7f-18" target="-idngQaAylRtu0GGNy7f-45">
          <mxGeometry relative="1" as="geometry" />
        </mxCell>
        <mxCell id="-idngQaAylRtu0GGNy7f-18" value="" style="shape=display;whiteSpace=wrap;html=1;shadow=1;" vertex="1" parent="WIyWlLk6GJQsqaUBKTNV-1">
          <mxGeometry x="357.5" y="620" width="100" height="30" as="geometry" />
        </mxCell>
        <mxCell id="-idngQaAylRtu0GGNy7f-95" style="edgeStyle=orthogonalEdgeStyle;rounded=0;orthogonalLoop=1;jettySize=auto;html=1;exitX=0;exitY=0;exitDx=52.5;exitDy=40;exitPerimeter=0;entryX=0;entryY=0.5;entryDx=0;entryDy=0;" edge="1" parent="WIyWlLk6GJQsqaUBKTNV-1" source="-idngQaAylRtu0GGNy7f-19" target="-idngQaAylRtu0GGNy7f-93">
          <mxGeometry relative="1" as="geometry" />
        </mxCell>
        <mxCell id="-idngQaAylRtu0GGNy7f-19" value="" style="shape=display;whiteSpace=wrap;html=1;shadow=1;" vertex="1" parent="WIyWlLk6GJQsqaUBKTNV-1">
          <mxGeometry x="260" y="839.5" width="100" height="40" as="geometry" />
        </mxCell>
        <mxCell id="-idngQaAylRtu0GGNy7f-100" style="edgeStyle=orthogonalEdgeStyle;rounded=0;orthogonalLoop=1;jettySize=auto;html=1;exitX=0;exitY=0;exitDx=52.5;exitDy=40;exitPerimeter=0;entryX=0;entryY=0.5;entryDx=0;entryDy=0;" edge="1" parent="WIyWlLk6GJQsqaUBKTNV-1" source="-idngQaAylRtu0GGNy7f-20" target="-idngQaAylRtu0GGNy7f-99">
          <mxGeometry relative="1" as="geometry" />
        </mxCell>
        <mxCell id="-idngQaAylRtu0GGNy7f-20" value="" style="shape=display;whiteSpace=wrap;html=1;shadow=1;" vertex="1" parent="WIyWlLk6GJQsqaUBKTNV-1">
          <mxGeometry x="150" y="470" width="100" height="40" as="geometry" />
        </mxCell>
        <mxCell id="-idngQaAylRtu0GGNy7f-62" style="edgeStyle=orthogonalEdgeStyle;rounded=0;orthogonalLoop=1;jettySize=auto;html=1;exitX=0;exitY=0;exitDx=52.5;exitDy=40;exitPerimeter=0;entryX=0.5;entryY=0;entryDx=0;entryDy=0;" edge="1" parent="WIyWlLk6GJQsqaUBKTNV-1" source="-idngQaAylRtu0GGNy7f-21" target="-idngQaAylRtu0GGNy7f-44">
          <mxGeometry relative="1" as="geometry" />
        </mxCell>
        <mxCell id="-idngQaAylRtu0GGNy7f-21" value="" style="shape=display;whiteSpace=wrap;html=1;shadow=1;" vertex="1" parent="WIyWlLk6GJQsqaUBKTNV-1">
          <mxGeometry x="460" y="820" width="100" height="40" as="geometry" />
        </mxCell>
        <mxCell id="-idngQaAylRtu0GGNy7f-46" style="edgeStyle=orthogonalEdgeStyle;rounded=0;orthogonalLoop=1;jettySize=auto;html=1;exitX=0.5;exitY=1;exitDx=0;exitDy=0;entryX=0;entryY=0;entryDx=52.5;entryDy=0;entryPerimeter=0;" edge="1" parent="WIyWlLk6GJQsqaUBKTNV-1" source="-idngQaAylRtu0GGNy7f-24" target="-idngQaAylRtu0GGNy7f-9">
          <mxGeometry relative="1" as="geometry" />
        </mxCell>
        <mxCell id="-idngQaAylRtu0GGNy7f-24" value="Inicio" style="ellipse;whiteSpace=wrap;html=1;align=center;newEdgeStyle={&quot;edgeStyle&quot;:&quot;entityRelationEdgeStyle&quot;,&quot;startArrow&quot;:&quot;none&quot;,&quot;endArrow&quot;:&quot;none&quot;,&quot;segment&quot;:10,&quot;curved&quot;:1};treeFolding=1;treeMoving=1;shadow=1;" vertex="1" parent="WIyWlLk6GJQsqaUBKTNV-1">
          <mxGeometry x="122" width="80" height="30" as="geometry" />
        </mxCell>
        <mxCell id="-idngQaAylRtu0GGNy7f-25" value="Fim" style="ellipse;whiteSpace=wrap;html=1;align=center;newEdgeStyle={&quot;edgeStyle&quot;:&quot;entityRelationEdgeStyle&quot;,&quot;startArrow&quot;:&quot;none&quot;,&quot;endArrow&quot;:&quot;none&quot;,&quot;segment&quot;:10,&quot;curved&quot;:1};treeFolding=1;treeMoving=1;shadow=1;" vertex="1" parent="WIyWlLk6GJQsqaUBKTNV-1">
          <mxGeometry x="123" y="1130" width="80" height="30" as="geometry" />
        </mxCell>
        <mxCell id="-idngQaAylRtu0GGNy7f-48" style="edgeStyle=orthogonalEdgeStyle;rounded=0;orthogonalLoop=1;jettySize=auto;html=1;exitX=0.5;exitY=1;exitDx=0;exitDy=0;entryX=0;entryY=0;entryDx=55;entryDy=0;entryPerimeter=0;" edge="1" parent="WIyWlLk6GJQsqaUBKTNV-1" source="-idngQaAylRtu0GGNy7f-26" target="-idngQaAylRtu0GGNy7f-10">
          <mxGeometry relative="1" as="geometry" />
        </mxCell>
        <mxCell id="-idngQaAylRtu0GGNy7f-26" value="" style="shape=manualInput;whiteSpace=wrap;html=1;shadow=1;size=15;" vertex="1" parent="WIyWlLk6GJQsqaUBKTNV-1">
          <mxGeometry x="135" y="89" width="55" height="31" as="geometry" />
        </mxCell>
        <mxCell id="-idngQaAylRtu0GGNy7f-50" style="edgeStyle=orthogonalEdgeStyle;rounded=0;orthogonalLoop=1;jettySize=auto;html=1;exitX=0.5;exitY=1;exitDx=0;exitDy=0;entryX=0.5;entryY=0;entryDx=0;entryDy=0;entryPerimeter=0;" edge="1" parent="WIyWlLk6GJQsqaUBKTNV-1" source="-idngQaAylRtu0GGNy7f-27" target="-idngQaAylRtu0GGNy7f-33">
          <mxGeometry relative="1" as="geometry" />
        </mxCell>
        <mxCell id="-idngQaAylRtu0GGNy7f-27" value="" style="shape=manualInput;whiteSpace=wrap;html=1;shadow=1;size=15;" vertex="1" parent="WIyWlLk6GJQsqaUBKTNV-1">
          <mxGeometry x="136.5" y="180" width="55" height="31" as="geometry" />
        </mxCell>
        <mxCell id="-idngQaAylRtu0GGNy7f-51" style="edgeStyle=orthogonalEdgeStyle;rounded=0;orthogonalLoop=1;jettySize=auto;html=1;exitX=1;exitY=0.5;exitDx=0;exitDy=0;exitPerimeter=0;entryX=0;entryY=0;entryDx=52.5;entryDy=0;entryPerimeter=0;" edge="1" parent="WIyWlLk6GJQsqaUBKTNV-1" source="-idngQaAylRtu0GGNy7f-33" target="-idngQaAylRtu0GGNy7f-12">
          <mxGeometry relative="1" as="geometry" />
        </mxCell>
        <mxCell id="-idngQaAylRtu0GGNy7f-65" style="edgeStyle=orthogonalEdgeStyle;rounded=0;orthogonalLoop=1;jettySize=auto;html=1;exitX=0;exitY=0.5;exitDx=0;exitDy=0;exitPerimeter=0;entryX=0;entryY=0;entryDx=52.5;entryDy=0;entryPerimeter=0;" edge="1" parent="WIyWlLk6GJQsqaUBKTNV-1" source="-idngQaAylRtu0GGNy7f-33" target="-idngQaAylRtu0GGNy7f-11">
          <mxGeometry relative="1" as="geometry" />
        </mxCell>
        <mxCell id="-idngQaAylRtu0GGNy7f-33" value="" style="strokeWidth=1;html=1;shape=mxgraph.flowchart.decision;whiteSpace=wrap;shadow=1;" vertex="1" parent="WIyWlLk6GJQsqaUBKTNV-1">
          <mxGeometry x="122.5" y="230" width="80" height="40" as="geometry" />
        </mxCell>
        <mxCell id="-idngQaAylRtu0GGNy7f-58" style="edgeStyle=orthogonalEdgeStyle;rounded=0;orthogonalLoop=1;jettySize=auto;html=1;exitX=0.5;exitY=1;exitDx=0;exitDy=0;entryX=0.5;entryY=0;entryDx=0;entryDy=0;entryPerimeter=0;" edge="1" parent="WIyWlLk6GJQsqaUBKTNV-1" source="-idngQaAylRtu0GGNy7f-34" target="-idngQaAylRtu0GGNy7f-40">
          <mxGeometry relative="1" as="geometry" />
        </mxCell>
        <mxCell id="-idngQaAylRtu0GGNy7f-34" value="" style="shape=manualInput;whiteSpace=wrap;html=1;shadow=1;size=15;" vertex="1" parent="WIyWlLk6GJQsqaUBKTNV-1">
          <mxGeometry x="492.5" y="320" width="55" height="31" as="geometry" />
        </mxCell>
        <mxCell id="-idngQaAylRtu0GGNy7f-81" style="edgeStyle=orthogonalEdgeStyle;rounded=0;orthogonalLoop=1;jettySize=auto;html=1;exitX=0.5;exitY=1;exitDx=0;exitDy=0;entryX=0.5;entryY=0;entryDx=0;entryDy=0;entryPerimeter=0;" edge="1" parent="WIyWlLk6GJQsqaUBKTNV-1" source="-idngQaAylRtu0GGNy7f-35" target="-idngQaAylRtu0GGNy7f-42">
          <mxGeometry relative="1" as="geometry" />
        </mxCell>
        <mxCell id="-idngQaAylRtu0GGNy7f-35" value="" style="shape=manualInput;whiteSpace=wrap;html=1;shadow=1;size=15;" vertex="1" parent="WIyWlLk6GJQsqaUBKTNV-1">
          <mxGeometry x="602.5" y="469" width="55" height="31" as="geometry" />
        </mxCell>
        <mxCell id="-idngQaAylRtu0GGNy7f-78" style="edgeStyle=orthogonalEdgeStyle;rounded=0;orthogonalLoop=1;jettySize=auto;html=1;entryX=0;entryY=0;entryDx=55;entryDy=0;entryPerimeter=0;" edge="1" parent="WIyWlLk6GJQsqaUBKTNV-1" source="-idngQaAylRtu0GGNy7f-37" target="-idngQaAylRtu0GGNy7f-15">
          <mxGeometry relative="1" as="geometry" />
        </mxCell>
        <mxCell id="-idngQaAylRtu0GGNy7f-37" value="" style="shape=manualInput;whiteSpace=wrap;html=1;shadow=1;size=15;" vertex="1" parent="WIyWlLk6GJQsqaUBKTNV-1">
          <mxGeometry x="717.5" y="608.5" width="55" height="31" as="geometry" />
        </mxCell>
        <mxCell id="-idngQaAylRtu0GGNy7f-77" style="edgeStyle=orthogonalEdgeStyle;rounded=0;orthogonalLoop=1;jettySize=auto;html=1;exitX=0;exitY=0;exitDx=55;exitDy=30;exitPerimeter=0;entryX=0.5;entryY=0;entryDx=0;entryDy=0;" edge="1" parent="WIyWlLk6GJQsqaUBKTNV-1" source="-idngQaAylRtu0GGNy7f-38" target="-idngQaAylRtu0GGNy7f-37">
          <mxGeometry relative="1" as="geometry" />
        </mxCell>
        <mxCell id="-idngQaAylRtu0GGNy7f-38" value="" style="shape=display;whiteSpace=wrap;html=1;shadow=1;" vertex="1" parent="WIyWlLk6GJQsqaUBKTNV-1">
          <mxGeometry x="691" y="559.5" width="100" height="30" as="geometry" />
        </mxCell>
        <mxCell id="-idngQaAylRtu0GGNy7f-67" style="edgeStyle=orthogonalEdgeStyle;rounded=0;orthogonalLoop=1;jettySize=auto;html=1;entryX=0;entryY=0;entryDx=55;entryDy=0;entryPerimeter=0;" edge="1" parent="WIyWlLk6GJQsqaUBKTNV-1" source="-idngQaAylRtu0GGNy7f-39" target="-idngQaAylRtu0GGNy7f-17">
          <mxGeometry relative="1" as="geometry" />
        </mxCell>
        <mxCell id="-idngQaAylRtu0GGNy7f-86" style="edgeStyle=orthogonalEdgeStyle;rounded=0;orthogonalLoop=1;jettySize=auto;html=1;exitX=0;exitY=0.5;exitDx=0;exitDy=0;exitPerimeter=0;entryX=0;entryY=0;entryDx=52.5;entryDy=0;entryPerimeter=0;" edge="1" parent="WIyWlLk6GJQsqaUBKTNV-1" source="-idngQaAylRtu0GGNy7f-39" target="-idngQaAylRtu0GGNy7f-20">
          <mxGeometry relative="1" as="geometry" />
        </mxCell>
        <mxCell id="-idngQaAylRtu0GGNy7f-39" value="" style="strokeWidth=1;html=1;shape=mxgraph.flowchart.decision;whiteSpace=wrap;shadow=1;" vertex="1" parent="WIyWlLk6GJQsqaUBKTNV-1">
          <mxGeometry x="260" y="410" width="80" height="40" as="geometry" />
        </mxCell>
        <mxCell id="-idngQaAylRtu0GGNy7f-52" style="edgeStyle=orthogonalEdgeStyle;rounded=0;orthogonalLoop=1;jettySize=auto;html=1;exitX=1;exitY=0.5;exitDx=0;exitDy=0;exitPerimeter=0;entryX=0;entryY=0;entryDx=52.5;entryDy=0;entryPerimeter=0;" edge="1" parent="WIyWlLk6GJQsqaUBKTNV-1" source="-idngQaAylRtu0GGNy7f-40" target="-idngQaAylRtu0GGNy7f-13">
          <mxGeometry relative="1" as="geometry" />
        </mxCell>
        <mxCell id="-idngQaAylRtu0GGNy7f-66" style="edgeStyle=orthogonalEdgeStyle;rounded=0;orthogonalLoop=1;jettySize=auto;html=1;entryX=0.5;entryY=0;entryDx=0;entryDy=0;entryPerimeter=0;" edge="1" parent="WIyWlLk6GJQsqaUBKTNV-1" source="-idngQaAylRtu0GGNy7f-40" target="-idngQaAylRtu0GGNy7f-39">
          <mxGeometry relative="1" as="geometry" />
        </mxCell>
        <mxCell id="-idngQaAylRtu0GGNy7f-40" value="" style="strokeWidth=1;html=1;shape=mxgraph.flowchart.decision;whiteSpace=wrap;shadow=1;" vertex="1" parent="WIyWlLk6GJQsqaUBKTNV-1">
          <mxGeometry x="480" y="370" width="80" height="40" as="geometry" />
        </mxCell>
        <mxCell id="-idngQaAylRtu0GGNy7f-60" style="edgeStyle=orthogonalEdgeStyle;rounded=0;orthogonalLoop=1;jettySize=auto;html=1;exitX=1;exitY=0.5;exitDx=0;exitDy=0;exitPerimeter=0;entryX=0;entryY=0;entryDx=52.5;entryDy=0;entryPerimeter=0;" edge="1" parent="WIyWlLk6GJQsqaUBKTNV-1" source="-idngQaAylRtu0GGNy7f-41" target="-idngQaAylRtu0GGNy7f-21">
          <mxGeometry relative="1" as="geometry" />
        </mxCell>
        <mxCell id="-idngQaAylRtu0GGNy7f-61" style="edgeStyle=orthogonalEdgeStyle;rounded=0;orthogonalLoop=1;jettySize=auto;html=1;entryX=0;entryY=0;entryDx=52.5;entryDy=0;entryPerimeter=0;" edge="1" parent="WIyWlLk6GJQsqaUBKTNV-1" source="-idngQaAylRtu0GGNy7f-41" target="-idngQaAylRtu0GGNy7f-19">
          <mxGeometry relative="1" as="geometry" />
        </mxCell>
        <mxCell id="-idngQaAylRtu0GGNy7f-41" value="" style="strokeWidth=1;html=1;shape=mxgraph.flowchart.decision;whiteSpace=wrap;shadow=1;" vertex="1" parent="WIyWlLk6GJQsqaUBKTNV-1">
          <mxGeometry x="372.49999999999994" y="759.5" width="80" height="40" as="geometry" />
        </mxCell>
        <mxCell id="-idngQaAylRtu0GGNy7f-55" style="edgeStyle=orthogonalEdgeStyle;rounded=0;orthogonalLoop=1;jettySize=auto;html=1;exitX=1;exitY=0.5;exitDx=0;exitDy=0;exitPerimeter=0;entryX=0;entryY=0;entryDx=55;entryDy=0;entryPerimeter=0;" edge="1" parent="WIyWlLk6GJQsqaUBKTNV-1" source="-idngQaAylRtu0GGNy7f-42" target="-idngQaAylRtu0GGNy7f-38">
          <mxGeometry relative="1" as="geometry" />
        </mxCell>
        <mxCell id="-idngQaAylRtu0GGNy7f-56" style="edgeStyle=orthogonalEdgeStyle;rounded=0;orthogonalLoop=1;jettySize=auto;html=1;exitX=0;exitY=0.5;exitDx=0;exitDy=0;exitPerimeter=0;entryX=0;entryY=0;entryDx=52.5;entryDy=0;entryPerimeter=0;" edge="1" parent="WIyWlLk6GJQsqaUBKTNV-1" source="-idngQaAylRtu0GGNy7f-42" target="-idngQaAylRtu0GGNy7f-16">
          <mxGeometry relative="1" as="geometry" />
        </mxCell>
        <mxCell id="-idngQaAylRtu0GGNy7f-42" value="" style="strokeWidth=1;html=1;shape=mxgraph.flowchart.decision;whiteSpace=wrap;shadow=1;" vertex="1" parent="WIyWlLk6GJQsqaUBKTNV-1">
          <mxGeometry x="592" y="519.5" width="80" height="40" as="geometry" />
        </mxCell>
        <mxCell id="-idngQaAylRtu0GGNy7f-87" style="edgeStyle=orthogonalEdgeStyle;rounded=0;orthogonalLoop=1;jettySize=auto;html=1;exitX=0.5;exitY=1;exitDx=0;exitDy=0;entryX=0;entryY=0;entryDx=55;entryDy=0;entryPerimeter=0;" edge="1" parent="WIyWlLk6GJQsqaUBKTNV-1" source="-idngQaAylRtu0GGNy7f-43" target="-idngQaAylRtu0GGNy7f-18">
          <mxGeometry relative="1" as="geometry" />
        </mxCell>
        <mxCell id="-idngQaAylRtu0GGNy7f-43" value="" style="shape=manualInput;whiteSpace=wrap;html=1;shadow=1;size=15;" vertex="1" parent="WIyWlLk6GJQsqaUBKTNV-1">
          <mxGeometry x="384.99999999999994" y="550" width="55" height="31" as="geometry" />
        </mxCell>
        <mxCell id="-idngQaAylRtu0GGNy7f-96" style="edgeStyle=orthogonalEdgeStyle;rounded=0;orthogonalLoop=1;jettySize=auto;html=1;exitX=0.5;exitY=1;exitDx=0;exitDy=0;entryX=1;entryY=0.5;entryDx=0;entryDy=0;" edge="1" parent="WIyWlLk6GJQsqaUBKTNV-1" source="-idngQaAylRtu0GGNy7f-44" target="-idngQaAylRtu0GGNy7f-93">
          <mxGeometry relative="1" as="geometry" />
        </mxCell>
        <mxCell id="-idngQaAylRtu0GGNy7f-44" value="" style="shape=manualInput;whiteSpace=wrap;html=1;shadow=1;size=0;" vertex="1" parent="WIyWlLk6GJQsqaUBKTNV-1">
          <mxGeometry x="474" y="900" width="76" height="30" as="geometry" />
        </mxCell>
        <mxCell id="-idngQaAylRtu0GGNy7f-74" style="edgeStyle=orthogonalEdgeStyle;rounded=0;orthogonalLoop=1;jettySize=auto;html=1;exitX=0.5;exitY=1;exitDx=0;exitDy=0;entryX=0.5;entryY=0;entryDx=0;entryDy=0;entryPerimeter=0;" edge="1" parent="WIyWlLk6GJQsqaUBKTNV-1" source="-idngQaAylRtu0GGNy7f-45" target="-idngQaAylRtu0GGNy7f-41">
          <mxGeometry relative="1" as="geometry" />
        </mxCell>
        <mxCell id="-idngQaAylRtu0GGNy7f-45" value="" style="shape=manualInput;whiteSpace=wrap;html=1;shadow=1;size=0;" vertex="1" parent="WIyWlLk6GJQsqaUBKTNV-1">
          <mxGeometry x="374.5" y="689.5" width="76" height="30" as="geometry" />
        </mxCell>
        <mxCell id="-idngQaAylRtu0GGNy7f-103" style="edgeStyle=orthogonalEdgeStyle;rounded=0;orthogonalLoop=1;jettySize=auto;html=1;exitX=0.5;exitY=1;exitDx=0;exitDy=0;entryX=1;entryY=0.5;entryDx=0;entryDy=0;" edge="1" parent="WIyWlLk6GJQsqaUBKTNV-1" source="-idngQaAylRtu0GGNy7f-75" target="-idngQaAylRtu0GGNy7f-102">
          <mxGeometry relative="1" as="geometry">
            <mxPoint x="637" y="1100" as="targetPoint" />
            <Array as="points">
              <mxPoint x="637" y="1085" />
            </Array>
          </mxGeometry>
        </mxCell>
        <mxCell id="-idngQaAylRtu0GGNy7f-75" value="" style="ellipse;whiteSpace=wrap;html=1;shadow=1;" vertex="1" parent="WIyWlLk6GJQsqaUBKTNV-1">
          <mxGeometry x="632" y="720" width="10" height="10" as="geometry" />
        </mxCell>
        <mxCell id="-idngQaAylRtu0GGNy7f-101" style="edgeStyle=orthogonalEdgeStyle;rounded=0;orthogonalLoop=1;jettySize=auto;html=1;entryX=1;entryY=0.5;entryDx=0;entryDy=0;" edge="1" parent="WIyWlLk6GJQsqaUBKTNV-1" source="-idngQaAylRtu0GGNy7f-93" target="-idngQaAylRtu0GGNy7f-99">
          <mxGeometry relative="1" as="geometry">
            <Array as="points">
              <mxPoint x="415" y="1055" />
            </Array>
          </mxGeometry>
        </mxCell>
        <mxCell id="-idngQaAylRtu0GGNy7f-93" value="" style="ellipse;whiteSpace=wrap;html=1;shadow=1;" vertex="1" parent="WIyWlLk6GJQsqaUBKTNV-1">
          <mxGeometry x="409.75" y="960" width="10" height="10" as="geometry" />
        </mxCell>
        <mxCell id="-idngQaAylRtu0GGNy7f-104" style="edgeStyle=orthogonalEdgeStyle;rounded=0;orthogonalLoop=1;jettySize=auto;html=1;exitX=0.5;exitY=1;exitDx=0;exitDy=0;entryX=0;entryY=0.5;entryDx=0;entryDy=0;" edge="1" parent="WIyWlLk6GJQsqaUBKTNV-1" source="-idngQaAylRtu0GGNy7f-99" target="-idngQaAylRtu0GGNy7f-102">
          <mxGeometry relative="1" as="geometry" />
        </mxCell>
        <mxCell id="-idngQaAylRtu0GGNy7f-99" value="" style="ellipse;whiteSpace=wrap;html=1;shadow=1;" vertex="1" parent="WIyWlLk6GJQsqaUBKTNV-1">
          <mxGeometry x="295" y="1050" width="10" height="10" as="geometry" />
        </mxCell>
        <mxCell id="-idngQaAylRtu0GGNy7f-106" style="edgeStyle=orthogonalEdgeStyle;rounded=0;orthogonalLoop=1;jettySize=auto;html=1;exitX=0.5;exitY=1;exitDx=0;exitDy=0;entryX=1;entryY=0.5;entryDx=0;entryDy=0;" edge="1" parent="WIyWlLk6GJQsqaUBKTNV-1" source="-idngQaAylRtu0GGNy7f-102" target="-idngQaAylRtu0GGNy7f-105">
          <mxGeometry relative="1" as="geometry" />
        </mxCell>
        <mxCell id="-idngQaAylRtu0GGNy7f-102" value="" style="ellipse;whiteSpace=wrap;html=1;shadow=1;" vertex="1" parent="WIyWlLk6GJQsqaUBKTNV-1">
          <mxGeometry x="515" y="1080" width="10" height="10" as="geometry" />
        </mxCell>
        <mxCell id="-idngQaAylRtu0GGNy7f-108" style="edgeStyle=orthogonalEdgeStyle;rounded=0;orthogonalLoop=1;jettySize=auto;html=1;exitX=0.5;exitY=1;exitDx=0;exitDy=0;entryX=0.5;entryY=0;entryDx=0;entryDy=0;" edge="1" parent="WIyWlLk6GJQsqaUBKTNV-1" source="-idngQaAylRtu0GGNy7f-105" target="-idngQaAylRtu0GGNy7f-25">
          <mxGeometry relative="1" as="geometry" />
        </mxCell>
        <mxCell id="-idngQaAylRtu0GGNy7f-105" value="" style="ellipse;whiteSpace=wrap;html=1;shadow=1;" vertex="1" parent="WIyWlLk6GJQsqaUBKTNV-1">
          <mxGeometry x="159" y="1105" width="10" height="10" as="geometry" />
        </mxCell>
      </root>
    </mxGraphModel>
  </diagram>
</mxfile>
